<?xml version="1.0" encoding="UTF-8"?><svg width="40px" height="40px" viewBox="0 0 40 40" version="1.1" xmlns="http://www.w3.org/2000/svg" xmlns:xlink="http://www.w3.org/1999/xlink">    <!-- Generator: Sketch 52.5 (67469) - http://www.bohemiancoding.com/sketch -->    <title>社会事件</title>    <desc>Created with Sketch.</desc>    <defs>        <filter x="-106.2%" y="-106.2%" width="312.5%" height="312.5%" filterUnits="objectBoundingBox" id="filter-1">            <feOffset dx="0" dy="3" in="SourceAlpha" result="shadowOffsetOuter1"></feOffset>            <feGaussianBlur stdDeviation="5" in="shadowOffsetOuter1" result="shadowBlurOuter1"></feGaussianBlur>            <feColorMatrix values="0 0 0 0 0   0 0 0 0 0   0 0 0 0 0  0 0 0 0.2 0" type="matrix" in="shadowBlurOuter1" result="shadowMatrixOuter1"></feColorMatrix>            <feMerge>                <feMergeNode in="shadowMatrixOuter1"></feMergeNode>                <feMergeNode in="SourceGraphic"></feMergeNode>            </feMerge>        </filter>        <path d="M1.77635684e-13,10.8 C1.77635684e-13,4.8353247 4.83401323,1.81188398e-13 10.8,1.81188398e-13 L10.8,1.81188398e-13 C16.7646753,1.81188398e-13 21.6,4.83401323 21.6,10.8 L21.6,10.8 C21.6,16.7646753 16.7659868,21.6 10.8,21.6 L10.8,21.6 C4.8353247,21.6 1.77635684e-13,16.7659868 1.77635684e-13,10.8 L1.77635684e-13,10.8 Z" id="path-2"></path>        <linearGradient x1="0%" y1="0%" x2="50%" y2="71.9791667%" id="linearGradient-4">            <stop stop-color="#FFFFFF" offset="0%"></stop>            <stop stop-color="#DBC8C1" offset="100%"></stop>        </linearGradient>    </defs>    <g id="Page-1" stroke="none" stroke-width="1" fill="none" fill-rule="evenodd">        <g id="图标" transform="translate(-1133.000000, -330.000000)">            <g id="选中高亮-icon-copy-38" transform="translate(1133.000000, 330.000000)">                <g id="选中高亮-icon-copy-11" filter="url(#filter-1)" transform="translate(8.000000, 8.000000)">                    <rect id="Rectangle-6-Copy-3" stroke="#FFFFFF" stroke-width="3" fill="#FFFFFF" x="1.5" y="1.5" width="21" height="21" rx="10.5"></rect>                    <g id="Group-Copy" transform="translate(1.200000, 1.200000)">                        <g id="分组-14">                            <g id="分组-39">                                <mask id="mask-3" fill="white">                                    <use xlink:href="#path-2"></use>                                </mask>                                <use id="Mask" fill="#BB8E7D" xlink:href="#path-2"></use>                                <g id="分组-36" mask="url(#mask-3)">                                    <g transform="translate(3.000000, 3.000000)">                                        <path d="M4,1 L4,3 L12,3 L12,1 L13,1 C13.5522847,1 14,1.44771525 14,2 L14,13 L11,13 L11,16 L3,16 C2.44771525,16 2,15.5522847 2,15 L2,2 C2,1.44771525 2.44771525,1 3,1 L4,1 Z M8,5.5 L8,6.5 L12,6.5 L12,5.5 L8,5.5 Z M4,9 L4,10 L12,10 L12,9 L4,9 Z M4,12 L4,13 L9,13 L9,12 L4,12 Z M4,5 L4,7 L7,7 L7,5 L4,5 Z" id="合并形状" fill="#FFFFFF"></path>                                        <rect id="矩形-copy-39" fill="#FFFFFF" x="5" y="0" width="6" height="2" rx="0.5"></rect>                                        <polygon id="路径-18-copy" fill="url(#linearGradient-4)" points="11 13 11 16 14 13"></polygon>                                    </g>                                </g>                            </g>                        </g>                    </g>                </g>            </g>        </g>    </g></svg>