<?xml version="1.0" encoding="UTF-8"?><svg width="40px" height="40px" viewBox="0 0 40 40" version="1.1" xmlns="http://www.w3.org/2000/svg" xmlns:xlink="http://www.w3.org/1999/xlink">    <!-- Generator: Sketch 52.5 (67469) - http://www.bohemiancoding.com/sketch -->    <title>政治事件</title>    <desc>Created with Sketch.</desc>    <defs>        <filter x="-106.2%" y="-106.2%" width="312.5%" height="312.5%" filterUnits="objectBoundingBox" id="filter-1">            <feOffset dx="0" dy="3" in="SourceAlpha" result="shadowOffsetOuter1"></feOffset>            <feGaussianBlur stdDeviation="5" in="shadowOffsetOuter1" result="shadowBlurOuter1"></feGaussianBlur>            <feColorMatrix values="0 0 0 0 0   0 0 0 0 0   0 0 0 0 0  0 0 0 0.2 0" type="matrix" in="shadowBlurOuter1" result="shadowMatrixOuter1"></feColorMatrix>            <feMerge>                <feMergeNode in="shadowMatrixOuter1"></feMergeNode>                <feMergeNode in="SourceGraphic"></feMergeNode>            </feMerge>        </filter>        <path d="M1.77635684e-13,10.8 C1.77635684e-13,4.8353247 4.83401323,1.81188398e-13 10.8,1.81188398e-13 L10.8,1.81188398e-13 C16.7646753,1.81188398e-13 21.6,4.83401323 21.6,10.8 L21.6,10.8 C21.6,16.7646753 16.7659868,21.6 10.8,21.6 L10.8,21.6 C4.8353247,21.6 1.77635684e-13,16.7659868 1.77635684e-13,10.8 L1.77635684e-13,10.8 Z" id="path-2"></path>        <linearGradient x1="0%" y1="0%" x2="79.1080729%" y2="75.6575521%" id="linearGradient-4">            <stop stop-color="#EEEEEE" offset="0%"></stop>            <stop stop-color="#C4CEDA" offset="100%"></stop>        </linearGradient>    </defs>    <g id="Page-1" stroke="none" stroke-width="1" fill="none" fill-rule="evenodd">        <g id="图标" transform="translate(-1033.000000, -330.000000)">            <g id="选中高亮-icon-copy-37" transform="translate(1033.000000, 330.000000)">                <g id="选中高亮-icon-copy-10" filter="url(#filter-1)" transform="translate(8.000000, 8.000000)">                    <rect id="Rectangle-6-Copy-3" stroke="#FFFFFF" stroke-width="3" fill="#FFFFFF" x="1.5" y="1.5" width="21" height="21" rx="10.5"></rect>                    <g id="Group-Copy" transform="translate(1.200000, 1.200000)">                        <g id="分组-14">                            <g id="分组-41">                                <mask id="mask-3" fill="white">                                    <use xlink:href="#path-2"></use>                                </mask>                                <use id="Mask" fill="#6C849F" xlink:href="#path-2"></use>                                <g id="分组-40" mask="url(#mask-3)">                                    <g transform="translate(3.000000, 3.000000)" id="分组-35">                                        <g>                                            <path d="M11.1685675,13 L4.66286499,13 C4.38672262,13 4.16286499,12.7761424 4.16286499,12.5 C4.16286499,12.4535417 4.16933995,12.4073102 4.18210302,12.3626394 L4.4678173,11.3626394 C4.5291461,11.1479887 4.7253391,11 4.94857928,11 L11.0514207,11 C11.2746609,11 11.4708539,11.1479887 11.5321827,11.3626394 L11.817897,12.3626394 C11.8937591,12.6281569 11.7400131,12.9048998 11.4744956,12.980762 C11.4298248,12.993525 11.3835933,13 11.337135,13 L11.1685675,13 L11,13 L11,16 L3,16 C2.44771525,16 2,15.5522847 2,15 L2,2 C2,1.44771525 2.44771525,1 3,1 L4,1 L4,3 L12,3 L12,1 L13,1 C13.5522847,1 14,1.44771525 14,2 L14,13 L11.1685675,13 Z M10,8 L10,11 L11,11 L11,8 L10,8 Z M8.3,4.225 C8.12222222,4.09166667 7.87777778,4.09166667 7.7,4.225 L4,7 L4,8 L12,8 L12,7 L8.3,4.225 Z M7.5,8 L7.5,11 L8.5,11 L8.5,8 L7.5,8 Z M5,8 L5,11 L6,11 L6,8 L5,8 Z" id="合并形状" fill="#FFFFFF"></path>                                            <rect id="矩形" fill="#FFFFFF" x="5" y="0" width="6" height="2" rx="0.5"></rect>                                            <polygon id="路径-18" fill="url(#linearGradient-4)" points="11 13 11 16 14 13"></polygon>                                        </g>                                    </g>                                </g>                            </g>                        </g>                    </g>                </g>            </g>        </g>    </g></svg>