<?xml version="1.0" encoding="UTF-8"?><svg width="40px" height="40px" viewBox="0 0 40 40" version="1.1" xmlns="http://www.w3.org/2000/svg" xmlns:xlink="http://www.w3.org/1999/xlink">    <!-- Generator: Sketch 52.5 (67469) - http://www.bohemiancoding.com/sketch -->    <title>政治人物</title>    <desc>Created with Sketch.</desc>    <defs>        <filter x="-106.2%" y="-106.2%" width="312.5%" height="312.5%" filterUnits="objectBoundingBox" id="filter-1">            <feOffset dx="0" dy="3" in="SourceAlpha" result="shadowOffsetOuter1"></feOffset>            <feGaussianBlur stdDeviation="5" in="shadowOffsetOuter1" result="shadowBlurOuter1"></feGaussianBlur>            <feColorMatrix values="0 0 0 0 0   0 0 0 0 0   0 0 0 0 0  0 0 0 0.2 0" type="matrix" in="shadowBlurOuter1" result="shadowMatrixOuter1"></feColorMatrix>            <feMerge>                <feMergeNode in="shadowMatrixOuter1"></feMergeNode>                <feMergeNode in="SourceGraphic"></feMergeNode>            </feMerge>        </filter>        <path d="M1.77635684e-13,10.8 C1.77635684e-13,4.8353247 4.83401323,1.81188398e-13 10.8,1.81188398e-13 L10.8,1.81188398e-13 C16.7646753,1.81188398e-13 21.6,4.83401323 21.6,10.8 L21.6,10.8 C21.6,16.7646753 16.7659868,21.6 10.8,21.6 L10.8,21.6 C4.8353247,21.6 1.77635684e-13,16.7659868 1.77635684e-13,10.8 L1.77635684e-13,10.8 Z" id="path-2"></path>        <linearGradient x1="50%" y1="0%" x2="50%" y2="100%" id="linearGradient-4">            <stop stop-color="#D2DBE5" offset="0%"></stop>            <stop stop-color="#FFFFFF" offset="100%"></stop>        </linearGradient>    </defs>    <g id="Page-1" stroke="none" stroke-width="1" fill="none" fill-rule="evenodd">        <g id="图标" transform="translate(-844.000000, -330.000000)">            <g id="选中高亮-icon-copy-35" transform="translate(844.000000, 330.000000)">                <g id="选中高亮-icon-copy-8" filter="url(#filter-1)" transform="translate(8.000000, 8.000000)">                    <rect id="Rectangle-6-Copy-3" stroke="#FFFFFF" stroke-width="3" fill="#FFFFFF" x="1.5" y="1.5" width="21" height="21" rx="10.5"></rect>                    <g id="Group-Copy" transform="translate(1.200000, 1.200000)">                        <g id="分组-14">                            <g id="分组-43">                                <mask id="mask-3" fill="white">                                    <use xlink:href="#path-2"></use>                                </mask>                                <use id="Mask" fill="#6C849F" xlink:href="#path-2"></use>                                <g id="分组-10" mask="url(#mask-3)">                                    <g transform="translate(3.000000, 1.000000)" id="分组-9">                                        <g transform="translate(1.000000, 0.000000)">                                            <path d="M2,10 L4.95982272,10 L7,18 L9,10 L12,10 C13.1045695,10 14,10.8954305 14,12 L14,16 C14,17.1045695 13.1045695,18 12,18 L2,18 C0.8954305,18 1.3527075e-16,17.1045695 0,16 L0,12 C-1.3527075e-16,10.8954305 0.8954305,10 2,10 Z M10,12 L10,13 L13,13 L13,12 L10,12 Z" id="合并形状" fill="#FFFFFF"></path>                                            <circle id="椭圆形" fill="url(#linearGradient-4)" cx="7" cy="5.5" r="3.5"></circle>                                            <polygon id="矩形" fill="#FFFFFF" points="7 10 8 11.5 7 16 6 11.5"></polygon>                                            <path d="M3.10102539,5 C3.81114909,5.51142578 4.60517578,5.65685221 5.48310547,5.4362793 C6.36103516,5.21570638 7.25084635,4.67444661 8.15253906,3.8125 C9.89072817,5.02745766 10.7732151,5.20160316 10.8,4.33493649 C10.8401773,3.03493649 11.0767173,0.525097656 6.8,0.525097656 C3.94885516,0.525097656 2.71586363,2.01673177 3.10102539,5 Z" id="路径-13" fill="#FFFFFF"></path>                                        </g>                                    </g>                                </g>                            </g>                        </g>                    </g>                </g>            </g>        </g>    </g></svg>