<?xml version="1.0" encoding="UTF-8"?><svg width="40px" height="40px" viewBox="0 0 40 40" version="1.1" xmlns="http://www.w3.org/2000/svg" xmlns:xlink="http://www.w3.org/1999/xlink">    <!-- Generator: Sketch 52.5 (67469) - http://www.bohemiancoding.com/sketch -->    <title>选中高亮-icon copy 4</title>    <desc>Created with Sketch.</desc>    <defs>        <filter x="-106.2%" y="-106.2%" width="312.5%" height="312.5%" filterUnits="objectBoundingBox" id="filter-1">            <feOffset dx="0" dy="3" in="SourceAlpha" result="shadowOffsetOuter1"></feOffset>            <feGaussianBlur stdDeviation="5" in="shadowOffsetOuter1" result="shadowBlurOuter1"></feGaussianBlur>            <feColorMatrix values="0 0 0 0 0   0 0 0 0 0   0 0 0 0 0  0 0 0 0.2 0" type="matrix" in="shadowBlurOuter1" result="shadowMatrixOuter1"></feColorMatrix>            <feMerge>                <feMergeNode in="shadowMatrixOuter1"></feMergeNode>                <feMergeNode in="SourceGraphic"></feMergeNode>            </feMerge>        </filter>        <path d="M-4.97379915e-14,10.8 C-4.97379915e-14,4.8353247 4.83401323,1.81188398e-13 10.8,1.81188398e-13 L10.8,1.81188398e-13 C16.7646753,1.81188398e-13 21.6,4.83401323 21.6,10.8 L21.6,10.8 C21.6,16.7646753 16.7659868,21.6 10.8,21.6 L10.8,21.6 C4.8353247,21.6 -4.97379915e-14,16.7659868 -4.97379915e-14,10.8 L-4.97379915e-14,10.8 Z" id="path-2"></path>        <path d="M6.06993105,6.81854185 C4.89270857,6.67867616 3.49307345,7.33009113 1.87102567,8.77278677 C1.6818612,8.94103506 1.48821988,9.04476079 1.29964238,9.11488497 C0.249264262,5.91031961 0.855011961,3.74028046 3.11688547,2.60476752 C5.02638629,1.64615385 8.84538793,2.06923077 10.7548887,2.06923077 C12.0278893,2.06923077 13.3008898,1.64615385 14.5738904,0.8 C15.2819094,5.09416061 14.3271589,8.25205293 11.7096392,10.273677 C9.38079874,12.0723414 7.24199995,12.12833 5.02638629,11.2322906 C4.34456424,10.9565479 3.7740377,10.8080887 3.31480667,10.7869131 C1.9144069,12.6678698 1.64010125,14.2555199 2.64233043,14.9821412 C2.87708023,15.1523361 2.94051433,15.4972614 2.78401447,15.7525536 C2.6275146,16.0078458 2.31034409,16.0768309 2.0755943,15.9066361 C0.330269828,14.6412669 0.821891991,12.2353739 2.73737043,9.80509344 C3.70564376,8.57658795 4.90849565,7.507929 6.06993105,6.81854185 Z" id="path-4"></path>        <linearGradient x1="12.7355289%" y1="69.7693918%" x2="81.7634417%" y2="15.5318722%" id="linearGradient-6">            <stop stop-color="#DEE9D8" offset="0%"></stop>            <stop stop-color="#FFFFFF" offset="100%"></stop>        </linearGradient>    </defs>    <g id="Page-1" stroke="none" stroke-width="1" fill="none" fill-rule="evenodd">        <g id="图标" transform="translate(-466.000000, -330.000000)">            <g id="选中高亮-icon-copy-25" transform="translate(466.000000, 330.000000)">                <g id="选中高亮-icon-copy-4" filter="url(#filter-1)" transform="translate(8.000000, 8.000000)">                    <rect id="Rectangle-6-Copy-3" stroke="#FFFFFF" stroke-width="3" fill="#FFFFFF" x="1.5" y="1.5" width="21" height="21" rx="10.5"></rect>                    <g id="Group-Copy" transform="translate(1.200000, 1.200000)">                        <g id="分组-14">                            <g id="分组-47">                                <mask id="mask-3" fill="white">                                    <use xlink:href="#path-2"></use>                                </mask>                                <use id="Mask" fill="#95AA8A" xlink:href="#path-2"></use>                                <g id="分组-30" mask="url(#mask-3)">                                    <g transform="translate(3.000000, 3.000000)" id="路径-12">                                        <g>                                            <mask id="mask-5" fill="white">                                                <use xlink:href="#path-4"></use>                                            </mask>                                            <use id="Mask" fill="#FFFFFF" xlink:href="#path-4"></use>                                            <path d="M14.7784411,0.334936491 C13.3759075,2.18741433 12.3104213,3.48205462 11.5819824,4.21885735 C8.33808594,7.5 5.8,6.19445705 3.3715332,10.7665527 C2.24171982,12.8936623 9.69697266,14.3191406 9.69697266,14 C9.69697266,13.6808594 16.464,8.34011351 16.464,8.17005675 C16.464,8 15.7598227,2.88374127 15.7598227,2.84812063 C15.7598227,2.82437354 15.4326955,1.9866455 14.7784411,0.334936491 Z" fill="url(#linearGradient-6)" mask="url(#mask-5)"></path>                                        </g>                                    </g>                                </g>                            </g>                        </g>                    </g>                </g>            </g>        </g>    </g></svg>