<?xml version="1.0" standalone="no"?><!DOCTYPE svg PUBLIC "-//W3C//DTD SVG 1.1//EN" "http://www.w3.org/Graphics/SVG/1.1/DTD/svg11.dtd"><svg t="1659787363869" class="icon" viewBox="0 0 1024 1024" version="1.1" xmlns="http://www.w3.org/2000/svg" p-id="18775" xmlns:xlink="http://www.w3.org/1999/xlink" width="200" height="200"><defs><style type="text/css">@font-face { font-family: feedback-iconfont; src: url("//at.alicdn.com/t/font_1031158_u69w8yhxdu.woff2?t=1630033759944") format("woff2"), url("//at.alicdn.com/t/font_1031158_u69w8yhxdu.woff?t=1630033759944") format("woff"), url("//at.alicdn.com/t/font_1031158_u69w8yhxdu.ttf?t=1630033759944") format("truetype"); }
</style></defs><path d="M170.666667 768h85.333333v174.122667L473.642667 768H682.666667c47.061333 0 85.333333-38.272 85.333333-85.333333V341.333333c0-47.061333-38.272-85.333333-85.333333-85.333333H170.666667c-47.061333 0-85.333333 38.272-85.333334 85.333333v341.333334c0 47.061333 38.272 85.333333 85.333334 85.333333z" p-id="18776" fill="#FFFFFF"></path><path d="M853.333333 85.333333H341.333333c-47.061333 0-85.333333 38.272-85.333333 85.333334h512c47.061333 0 85.333333 38.272 85.333333 85.333333v341.333333c47.061333 0 85.333333-38.272 85.333334-85.333333V170.666667c0-47.061333-38.272-85.333333-85.333334-85.333334z" p-id="18777" fill="#FFFFFF"></path></svg>