<?xml version="1.0" encoding="UTF-8"?><svg width="40px" height="40px" viewBox="0 0 40 40" version="1.1" xmlns="http://www.w3.org/2000/svg" xmlns:xlink="http://www.w3.org/1999/xlink">    <!-- Generator: Sketch 52.5 (67469) - http://www.bohemiancoding.com/sketch -->    <title>军事事件</title>    <desc>Created with Sketch.</desc>    <defs>        <filter x="-106.2%" y="-106.2%" width="312.5%" height="312.5%" filterUnits="objectBoundingBox" id="filter-1">            <feOffset dx="0" dy="3" in="SourceAlpha" result="shadowOffsetOuter1"></feOffset>            <feGaussianBlur stdDeviation="5" in="shadowOffsetOuter1" result="shadowBlurOuter1"></feGaussianBlur>            <feColorMatrix values="0 0 0 0 0   0 0 0 0 0   0 0 0 0 0  0 0 0 0.2 0" type="matrix" in="shadowBlurOuter1" result="shadowMatrixOuter1"></feColorMatrix>            <feMerge>                <feMergeNode in="shadowMatrixOuter1"></feMergeNode>                <feMergeNode in="SourceGraphic"></feMergeNode>            </feMerge>        </filter>        <path d="M1.77635684e-13,10.8 C1.77635684e-13,4.8353247 4.83401323,1.81188398e-13 10.8,1.81188398e-13 L10.8,1.81188398e-13 C16.7646753,1.81188398e-13 21.6,4.83401323 21.6,10.8 L21.6,10.8 C21.6,16.7646753 16.7659868,21.6 10.8,21.6 L10.8,21.6 C4.8353247,21.6 1.77635684e-13,16.7659868 1.77635684e-13,10.8 L1.77635684e-13,10.8 Z" id="path-2"></path>        <linearGradient x1="0%" y1="0%" x2="61.180013%" y2="73.1591797%" id="linearGradient-4">            <stop stop-color="#FFFFFF" offset="0%"></stop>            <stop stop-color="#C3D6CA" offset="100%"></stop>        </linearGradient>    </defs>    <g id="Page-1" stroke="none" stroke-width="1" fill="none" fill-rule="evenodd">        <g id="图标" transform="translate(-938.000000, -330.000000)">            <g id="选中高亮-icon-copy-36" transform="translate(938.000000, 330.000000)">                <g id="选中高亮-icon-copy-9" filter="url(#filter-1)" transform="translate(8.000000, 8.000000)">                    <rect id="Rectangle-6-Copy-3" stroke="#FFFFFF" stroke-width="3" fill="#FFFFFF" x="1.5" y="1.5" width="21" height="21" rx="10.5"></rect>                    <g id="Group-Copy" transform="translate(1.200000, 1.200000)">                        <g id="分组-14">                            <g id="分组-42">                                <mask id="mask-3" fill="white">                                    <use xlink:href="#path-2"></use>                                </mask>                                <use id="Mask" fill="#4B6855" xlink:href="#path-2"></use>                                <g id="分组-34" mask="url(#mask-3)">                                    <g transform="translate(5.000000, 3.000000)" id="分组-33">                                        <g>                                            <path d="M3,5 L2,5 L2,6 L3,6 L3,12 L6,13.6994629 L9,12 L9,6 L10,6 L10,5 L9,5 L3,5 Z M2,1 L2,3 L10,3 L10,1 L11,1 C11.5522847,1 12,1.44771525 12,2 L12,13 L9,13 L9,16 L1,16 C0.44771525,16 -1.57139945e-13,15.5522847 -1.5720758e-13,15 L-1.57318603e-13,2 C-1.57386238e-13,1.44771525 0.44771525,1 1,1 L2,1 Z M6,10 L4.8244295,10.618034 L5.04894348,9.30901699 L4.09788697,8.38196601 L5.41221475,8.19098301 L6,7 L6.58778525,8.19098301 L7.90211303,8.38196601 L6.95105652,9.30901699 L7.1755705,10.618034 L6,10 Z" id="合并形状" fill="#FFFFFF"></path>                                            <rect id="矩形" fill="#FFFFFF" x="3" y="0" width="6" height="2" rx="0.5"></rect>                                            <path d="M10.7928932,13.5 L12,13.5 L11.6464466,12.6464466 L10.7928932,13.5 Z M9.5,14.7928932 L8.64644661,15.6464466 L9.5,16 L9.5,14.7928932 Z M9.5,13.5 L9.5,13 L9,13.5 L9.5,13.5 Z" id="路径-18" stroke="url(#linearGradient-4)"></path>                                        </g>                                    </g>                                </g>                            </g>                        </g>                    </g>                </g>            </g>        </g>    </g></svg>