<?xml version="1.0" encoding="UTF-8"?><svg width="44px" height="50px" viewBox="0 0 44 50" version="1.1" xmlns="http://www.w3.org/2000/svg" xmlns:xlink="http://www.w3.org/1999/xlink">    <!-- Generator: Sketch 52.4 (67378) - http://www.bohemiancoding.com/sketch -->    <title>艺术家</title>    <desc>Created with Sketch.</desc>    <defs>        <filter x="0.0%" y="0.0%" width="100.0%" height="100.0%" filterUnits="objectBoundingBox" id="filter-1">            <feGaussianBlur stdDeviation="0" in="SourceGraphic"></feGaussianBlur>        </filter>        <path d="M29.104906,28.9635054 C29.0132239,29.043898 28.8701675,29.1627694 28.6757367,29.3201195 L28.6757381,29.3201213 C25.5352502,31.8616743 23.286653,35.3381164 22.2564658,39.2446328 C22.1514262,39.6429478 22.0659376,39.8421053 22,39.8421053 C21.9327968,39.8421053 21.8445498,39.635229 21.7352591,39.2214766 L21.735259,39.2214766 C20.6773799,35.2165623 18.3396761,31.6670805 15.0781158,29.11352 C14.9537701,29.0161665 14.8915972,28.9674897 14.8915972,28.9674897 C14.8915972,28.9674897 13.4775289,27.5900165 12.8896362,26.8106624 C11.0883597,24.7116035 10,21.9829018 10,19 C10,12.372583 15.372583,7 22,7 C28.627417,7 34,12.372583 34,19 C34,22.0000469 32.899093,24.7429632 31.0792331,26.8467948 C30.4979328,27.6110622 29.8377087,28.3209374 29.104906,28.9635054 Z" id="path-2"></path>        <filter x="-68.7%" y="-41.1%" width="237.5%" height="198.7%" filterUnits="objectBoundingBox" id="filter-3">            <feOffset dx="0" dy="3" in="SourceAlpha" result="shadowOffsetOuter1"></feOffset>            <feGaussianBlur stdDeviation="5" in="shadowOffsetOuter1" result="shadowBlurOuter1"></feGaussianBlur>            <feColorMatrix values="0 0 0 0 0   0 0 0 0 0   0 0 0 0 0  0 0 0 0.2 0" type="matrix" in="shadowBlurOuter1"></feColorMatrix>        </filter>        <path d="M-4.97379915e-14,10.8 C-4.97379915e-14,4.8353247 4.83401323,1.81188398e-13 10.8,1.81188398e-13 L10.8,1.81188398e-13 C16.7646753,1.81188398e-13 21.6,4.83401323 21.6,10.8 L21.6,10.8 C21.6,16.7646753 16.7659868,21.6 10.8,21.6 L10.8,21.6 C4.8353247,21.6 -4.97379915e-14,16.7659868 -4.97379915e-14,10.8 L-4.97379915e-14,10.8 Z" id="path-4"></path>        <path d="M9.93926008,12.1212562 C9.93926008,12.6059287 10.6510594,12.9143774 12.0746561,13.0466244 C12.3394488,13.0712186 12.5765628,13.2208227 12.7127623,13.4492297 C12.9482673,13.8441722 12.8190176,14.3552508 12.4240751,14.5907558 L11.8777847,14.9165217 C10.6612664,15.6419338 9.27123774,16.024912 7.85485523,16.024912 C3.51673847,16.024912 -1.39524476e-15,12.5081735 0,8.17005675 C6.66133815e-16,-2.69574159 14.9088901,-1.70794174 15.9028161,5.2066572 C16.8967421,12.1212562 9.93926008,11.0121776 9.93926008,12.1212562 Z M9.93926008,4.21885735 C10.4881903,4.21885735 10.9331861,3.7766043 10.9331861,3.2310575 C10.9331861,2.68551071 10.4881903,2.24325765 9.93926008,2.24325765 C9.3903299,2.24325765 8.94533407,2.68551071 8.94533407,3.2310575 C8.94533407,3.7766043 9.3903299,4.21885735 9.93926008,4.21885735 Z M11.9271121,7.1822569 C12.4760423,7.1822569 12.9210381,6.74000385 12.9210381,6.19445705 C12.9210381,5.64891026 12.4760423,5.2066572 11.9271121,5.2066572 C11.3781819,5.2066572 10.9331861,5.64891026 10.9331861,6.19445705 C10.9331861,6.74000385 11.3781819,7.1822569 11.9271121,7.1822569 Z M5.96355605,4.21885735 C6.51248622,4.21885735 6.95748205,3.7766043 6.95748205,3.2310575 C6.95748205,2.68551071 6.51248622,2.24325765 5.96355605,2.24325765 C5.41462587,2.24325765 4.96963004,2.68551071 4.96963004,3.2310575 C4.96963004,3.7766043 5.41462587,4.21885735 5.96355605,4.21885735 Z M3.97570403,8.17005675 C4.52463421,8.17005675 4.96963004,7.7278037 4.96963004,7.1822569 C4.96963004,6.63671011 4.52463421,6.19445705 3.97570403,6.19445705 C3.42677385,6.19445705 2.98177802,6.63671011 2.98177802,7.1822569 C2.98177802,7.7278037 3.42677385,8.17005675 3.97570403,8.17005675 Z" id="path-6"></path>        <linearGradient x1="100%" y1="0%" x2="11.1474609%" y2="100%" id="linearGradient-8">            <stop stop-color="#E8E0F4" offset="0%"></stop>            <stop stop-color="#FFFFFF" offset="100%"></stop>        </linearGradient>    </defs>    <g id="Page-1" stroke="none" stroke-width="1" fill="none" fill-rule="evenodd">        <g id="图标" transform="translate(-371.000000, -61.000000)">            <g id="选中高亮-icon-copy-3" transform="translate(371.000000, 61.000000)">                <ellipse id="Oval-2" fill="#999999" filter="url(#filter-1)" cx="22" cy="39.8" rx="2.6" ry="1.2"></ellipse>                <g id="Combined-Shape">                    <use fill="black" fill-opacity="1" filter="url(#filter-3)" xlink:href="#path-2"></use>                    <use fill="#FFFFFF" fill-rule="evenodd" xlink:href="#path-2"></use>                </g>                <rect id="Rectangle-6-Copy-3" stroke="#FFFFFF" stroke-width="3" fill="#FFFFFF" x="11.5" y="8.5" width="21" height="21" rx="10.5"></rect>                <g id="Group-Copy" transform="translate(11.200000, 8.200000)">                    <g id="分组-14">                        <g id="分组-48">                            <mask id="mask-5" fill="white">                                <use xlink:href="#path-4"></use>                            </mask>                            <use id="Mask" fill="#927FB0" xlink:href="#path-4"></use>                            <g id="分组-17" mask="url(#mask-5)">                                <g transform="translate(3.000000, 3.000000)">                                    <g id="路径-11" stroke="none" fill-rule="evenodd">                                        <mask id="mask-7" fill="white">                                            <use xlink:href="#path-6"></use>                                        </mask>                                        <use id="Mask" fill="#FFFFFF" xlink:href="#path-6"></use>                                        <path d="M0.8,4.6875 C0.457877604,7.74251309 0.922762044,10.124699 2.19465332,11.8340576 C4.10249023,14.3980956 8.464,15.4698224 11.464,14.3980956 C13.464,13.6836111 14.2426667,13.2776215 13.8,13.180127 L13.0446289,16.7945085 C10.2460154,17.0105718 8.33306448,17.1186035 7.30577619,17.1186035 C5.76484375,17.1186035 3.58930664,16.0651857 2.19465332,15.2316406 C0.8,14.3980956 -1.56950684,11.2393798 -1.56950684,10.4522217 C-1.56950684,9.66506351 -1.2,7.91223141 -1.2,7.28864746 C-1.2,6.87292483 -0.858854167,6.00587567 -0.1765625,4.6875 C0.10078125,4.29944661 0.332877604,4.10541992 0.519726563,4.10541992 C0.706575521,4.10541992 0.8,4.29944661 0.8,4.6875 Z" fill="#F2F0F6" mask="url(#mask-7)"></path>                                    </g>                                    <path d="M8,15.9519043 L16,6" id="路径-10" stroke="url(#linearGradient-8)" stroke-linecap="round"></path>                                </g>                            </g>                        </g>                    </g>                </g>            </g>        </g>    </g></svg>