<?xml version="1.0" encoding="UTF-8"?><svg width="40px" height="40px" viewBox="0 0 40 40" version="1.1" xmlns="http://www.w3.org/2000/svg" xmlns:xlink="http://www.w3.org/1999/xlink">    <!-- Generator: Sketch 52.5 (67469) - http://www.bohemiancoding.com/sketch -->    <title>军事人物</title>    <desc>Created with Sketch.</desc>    <defs>        <filter x="-106.2%" y="-106.2%" width="312.5%" height="312.5%" filterUnits="objectBoundingBox" id="filter-1">            <feOffset dx="0" dy="3" in="SourceAlpha" result="shadowOffsetOuter1"></feOffset>            <feGaussianBlur stdDeviation="5" in="shadowOffsetOuter1" result="shadowBlurOuter1"></feGaussianBlur>            <feColorMatrix values="0 0 0 0 0   0 0 0 0 0   0 0 0 0 0  0 0 0 0.2 0" type="matrix" in="shadowBlurOuter1" result="shadowMatrixOuter1"></feColorMatrix>            <feMerge>                <feMergeNode in="shadowMatrixOuter1"></feMergeNode>                <feMergeNode in="SourceGraphic"></feMergeNode>            </feMerge>        </filter>        <path d="M1.77635684e-13,10.8 C1.77635684e-13,4.8353247 4.83401323,1.81188398e-13 10.8,1.81188398e-13 L10.8,1.81188398e-13 C16.7646753,1.81188398e-13 21.6,4.83401323 21.6,10.8 L21.6,10.8 C21.6,16.7646753 16.7659868,21.6 10.8,21.6 L10.8,21.6 C4.8353247,21.6 1.77635684e-13,16.7659868 1.77635684e-13,10.8 L1.77635684e-13,10.8 Z" id="path-2"></path>        <linearGradient x1="50%" y1="0%" x2="50%" y2="100%" id="linearGradient-4">            <stop stop-color="#D4E2D9" offset="0%"></stop>            <stop stop-color="#FFFFFF" offset="100%"></stop>        </linearGradient>    </defs>    <g id="Page-1" stroke="none" stroke-width="1" fill="none" fill-rule="evenodd">        <g id="图标" transform="translate(-749.000000, -330.000000)">            <g id="选中高亮-icon-copy-34" transform="translate(749.000000, 330.000000)">                <g id="选中高亮-icon-copy-7" filter="url(#filter-1)" transform="translate(8.000000, 8.000000)">                    <rect id="Rectangle-6-Copy-3" stroke="#FFFFFF" stroke-width="3" fill="#FFFFFF" x="1.5" y="1.5" width="21" height="21" rx="10.5"></rect>                    <g id="Group-Copy" transform="translate(1.200000, 1.200000)">                        <g id="分组-14">                            <g id="分组-44">                                <mask id="mask-3" fill="white">                                    <use xlink:href="#path-2"></use>                                </mask>                                <use id="Mask" fill="#4B6855" xlink:href="#path-2"></use>                                <g id="分组-7" mask="url(#mask-3)">                                    <g transform="translate(4.000000, 3.000000)">                                        <path d="M7,9 C8.38071187,9 9.5,7.88071187 9.5,6.5 C9.5,5.11928813 9.5,4 7,4 C4.5,4 4.5,5.11928813 4.5,6.5 C4.5,7.88071187 5.61928813,9 7,9 Z" id="椭圆形" fill="url(#linearGradient-4)"></path>                                        <path d="M2.7345908,9 L5,9 C5.66683648,11.3333333 6.3335456,12.5 7.00012736,12.5 C7.66670912,12.5 8.29622396,11.3333333 8.88867187,9 L11.2654092,9 C12.2607099,9 13.1045514,9.73185981 13.2453082,10.7171573 L13.6738796,13.7171573 C13.8300893,14.8106253 13.0702914,15.8236893 11.9768233,15.979899 C11.8831368,15.9932828 11.7886184,16 11.6939806,16 L2.30601937,16 C1.20144988,16 0.306019375,15.1045695 0.306019375,14 C0.306019375,13.9053623 0.31273659,13.8108439 0.326120387,13.7171573 L0.754691816,10.7171573 C0.895448598,9.73185981 1.73929005,9 2.7345908,9 Z" id="矩形" fill="#FFFFFF"></path>                                        <path d="M3.5,2 C4.14943971,1.89835885 4.65745566,1.76438426 5.02404785,1.59807621 C5.62743267,1.32434493 6.23854249,0.5 7,0.5 C7.75539099,0.5 8.35999573,1.32868918 8.95982272,1.59807621 C9.33039152,1.76450158 9.84378394,1.89847617 10.5,2 C10.1666667,2.44444444 10,2.77777778 10,3 C10,3.22222222 10,3.38888889 10,3.5 C9.30654848,3.31257157 8.30654848,3.21885735 7,3.21885735 C5.69345152,3.21885735 4.69345152,3.31257157 4,3.5 L4,3 L3.5,2 Z M7,3 C7.55228475,3 8,2.55228475 8,2 C8,1.44771525 7.55228475,1 7,1 C6.44771525,1 6,1.44771525 6,2 C6,2.55228475 6.44771525,3 7,3 Z" id="合并形状" fill="#FFFFFF"></path>                                        <path d="M4,3.7590332 C5,3.54386393 6,3.4362793 7,3.4362793 C8,3.4362793 9,3.54386393 10,3.7590332 C9.30654848,4.62084961 8.30654848,5.05175781 7,5.05175781 C5.69345152,5.05175781 4.69345152,4.62084961 4,3.7590332 Z" id="矩形" fill="#FFFFFF"></path>                                        <polygon id="路径-19" fill="#FFFFFF" points="6.34973145 10.0683594 6.99035645 9.05432129 7.65966797 10.0683594 7.00469971 12.3868408"></polygon>                                    </g>                                </g>                            </g>                        </g>                    </g>                </g>            </g>        </g>    </g></svg>