<?xml version="1.0" encoding="UTF-8"?><svg width="40px" height="40px" viewBox="0 0 40 40" version="1.1" xmlns="http://www.w3.org/2000/svg" xmlns:xlink="http://www.w3.org/1999/xlink">    <!-- Generator: Sketch 52.5 (67469) - http://www.bohemiancoding.com/sketch -->    <title>文学家</title>    <desc>Created with Sketch.</desc>    <defs>        <filter x="-106.2%" y="-106.2%" width="312.5%" height="312.5%" filterUnits="objectBoundingBox" id="filter-1">            <feOffset dx="0" dy="3" in="SourceAlpha" result="shadowOffsetOuter1"></feOffset>            <feGaussianBlur stdDeviation="5" in="shadowOffsetOuter1" result="shadowBlurOuter1"></feGaussianBlur>            <feColorMatrix values="0 0 0 0 0   0 0 0 0 0   0 0 0 0 0  0 0 0 0.2 0" type="matrix" in="shadowBlurOuter1" result="shadowMatrixOuter1"></feColorMatrix>            <feMerge>                <feMergeNode in="shadowMatrixOuter1"></feMergeNode>                <feMergeNode in="SourceGraphic"></feMergeNode>            </feMerge>        </filter>        <path d="M0,10.8 C0,4.8353247 4.83401323,0 10.8,0 L10.8,0 C16.7646753,0 21.6,4.83401323 21.6,10.8 L21.6,10.8 C21.6,16.7646753 16.7659868,21.6 10.8,21.6 L10.8,21.6 C4.8353247,21.6 0,16.7659868 0,10.8 L0,10.8 Z" id="path-2"></path>        <path d="M0.926026328,10.3062285 C0.89799184,9.90339199 0.883974596,9.51103753 0.883974596,9.12916512 C0.893801242,8.60428819 0.939490074,8.1004908 1.02104109,7.61777295 L4.08493649,10.6471143 L4.08493649,9.60200307 L1.20990956,6.75940016 C1.98585667,3.92737224 4.13873423,1.9046946 7.66854223,0.691367234 L7.66854223,13.5485101 L4.32830806,17.5074549 L1.47248108,13.8549628 C1.28324558,13.0244128 1.13964688,12.2279899 1.04168499,11.465694 L3.85288568,14.2451905 L3.85288568,13.2000793 L0.926026328,10.3062285 Z" id="path-4"></path>        <linearGradient x1="50%" y1="0%" x2="8.65977638%" y2="91.3338175%" id="linearGradient-6">            <stop stop-color="#E7DED0" offset="0%"></stop>            <stop stop-color="#FFFCFC" offset="100%"></stop>        </linearGradient>    </defs>    <g id="Page-1" stroke="none" stroke-width="1" fill="none" fill-rule="evenodd">        <g id="图标" transform="translate(-90.000000, -330.000000)">            <g id="选中高亮-icon-2-copy-7" transform="translate(90.000000, 330.000000)">                <g id="选中高亮-icon" filter="url(#filter-1)" transform="translate(8.000000, 8.000000)">                    <rect id="Rectangle-6-Copy-3" stroke="#FFFFFF" stroke-width="3" fill="#FFFFFF" x="1.5" y="1.5" width="21" height="21" rx="10.5"></rect>                    <g id="Group-Copy" transform="translate(1.200000, 1.200000)">                        <g id="分组-16">                            <mask id="mask-3" fill="white">                                <use xlink:href="#path-2"></use>                            </mask>                            <use id="Mask" fill-opacity="0.920000017" fill="#CFB283" xlink:href="#path-2"></use>                            <g mask="url(#mask-3)" id="分组-15">                                <g transform="translate(0.000000, -2.000000)">                                    <g>                                        <g>                                            <g id="分组" transform="translate(9.232051, 11.928203) rotate(-330.000000) translate(-9.232051, -11.928203) translate(5.232051, 0.928203)">                                                <rect id="矩形" fill="#FFFFFF" x="3.8660254" y="7.23205081" width="1" height="14" rx="0.5"></rect>                                                <g id="路径-2">                                                    <mask id="mask-5" fill="white">                                                        <use xlink:href="#path-4"></use>                                                    </mask>                                                    <use id="Mask" fill="#FFFFFF" xlink:href="#path-4"></use>                                                    <path d="M8.28433289,-0.429571605 C5.6210345,3.04066674 4.32690769,8.71833108 4.40195245,16.6034214 C5.11073789,19.4585787 7.68487206,16.7485644 12.124355,8.4733787 L8.28433289,-0.429571605 Z" fill="url(#linearGradient-6)" mask="url(#mask-5)"></path>                                                </g>                                            </g>                                            <rect id="矩形" fill="#FFFFFF" x="4" y="20" width="9" height="1" rx="0.5"></rect>                                        </g>                                    </g>                                </g>                            </g>                        </g>                    </g>                </g>            </g>        </g>    </g></svg>