<?xml version="1.0" encoding="UTF-8"?><svg width="44px" height="50px" viewBox="0 0 44 50" version="1.1" xmlns="http://www.w3.org/2000/svg" xmlns:xlink="http://www.w3.org/1999/xlink">    <!-- Generator: Sketch 52.4 (67378) - http://www.bohemiancoding.com/sketch -->    <title>行业人物</title>    <desc>Created with Sketch.</desc>    <defs>        <filter x="0.0%" y="0.0%" width="100.0%" height="100.0%" filterUnits="objectBoundingBox" id="filter-1">            <feGaussianBlur stdDeviation="0" in="SourceGraphic"></feGaussianBlur>        </filter>        <path d="M19.104906,21.9635054 C19.0132239,22.043898 18.8701675,22.1627694 18.6757367,22.3201195 L18.6757381,22.3201213 C15.5352502,24.8616743 13.286653,28.3381164 12.2564658,32.2446328 C12.1514262,32.6429478 12.0659376,32.8421053 12,32.8421053 C11.9327968,32.8421053 11.8445498,32.635229 11.7352591,32.2214766 L11.735259,32.2214766 C10.6773799,28.2165623 8.33967611,24.6670805 5.07811583,22.11352 C4.95377009,22.0161665 4.89159721,21.9674897 4.89159721,21.9674897 C4.89159721,21.9674897 3.47752888,20.5900165 2.88963618,19.8106624 C1.08835968,17.7116035 3.65300111e-16,14.9829018 0,12 C-8.11624501e-16,5.372583 5.372583,1.21743675e-15 12,0 C18.627417,-1.21743675e-15 24,5.372583 24,12 C24,15.0000469 22.899093,17.7429632 21.0792331,19.8467948 C20.4979328,20.6110622 19.8377087,21.3209374 19.104906,21.9635054 Z" id="path-2"></path>        <filter x="-68.7%" y="-41.1%" width="237.5%" height="198.7%" filterUnits="objectBoundingBox" id="filter-3">            <feOffset dx="0" dy="3" in="SourceAlpha" result="shadowOffsetOuter1"></feOffset>            <feGaussianBlur stdDeviation="5" in="shadowOffsetOuter1" result="shadowBlurOuter1"></feGaussianBlur>            <feColorMatrix values="0 0 0 0 0   0 0 0 0 0   0 0 0 0 0  0 0 0 0.2 0" type="matrix" in="shadowBlurOuter1"></feColorMatrix>        </filter>        <path d="M-4.97379915e-14,10.8 C-4.97379915e-14,4.8353247 4.83401323,1.81188398e-13 10.8,1.81188398e-13 L10.8,1.81188398e-13 C16.7646753,1.81188398e-13 21.6,4.83401323 21.6,10.8 L21.6,10.8 C21.6,16.7646753 16.7659868,21.6 10.8,21.6 L10.8,21.6 C4.8353247,21.6 -4.97379915e-14,16.7659868 -4.97379915e-14,10.8 L-4.97379915e-14,10.8 Z" id="path-4"></path>        <linearGradient x1="50%" y1="0%" x2="50%" y2="100%" id="linearGradient-6">            <stop stop-color="#FFFFFF" offset="0%"></stop>            <stop stop-color="#D9E5F3" offset="100%"></stop>        </linearGradient>    </defs>    <g id="Page-1" stroke="none" stroke-width="1" fill="none" fill-rule="evenodd">        <g id="图标" transform="translate(-277.000000, -61.000000)">            <g id="选中高亮-icon-copy-21" transform="translate(277.000000, 61.000000)">                <g id="选中高亮-icon-copy-2" transform="translate(10.000000, 7.000000)">                    <ellipse id="Oval-2" fill="#999999" filter="url(#filter-1)" cx="12" cy="32.8" rx="2.6" ry="1.2"></ellipse>                    <g id="Combined-Shape">                        <use fill="black" fill-opacity="1" filter="url(#filter-3)" xlink:href="#path-2"></use>                        <use fill="#FFFFFF" fill-rule="evenodd" xlink:href="#path-2"></use>                    </g>                    <rect id="Rectangle-6-Copy-3" stroke="#FFFFFF" stroke-width="3" fill="#FFFFFF" x="1.5" y="1.5" width="21" height="21" rx="10.5"></rect>                    <g id="Group-Copy" transform="translate(1.200000, 1.200000)">                        <g id="分组-14">                            <g id="分组-49">                                <mask id="mask-5" fill="white">                                    <use xlink:href="#path-4"></use>                                </mask>                                <use id="Mask" fill-opacity="0.920000017" fill="#719EBF" xlink:href="#path-4"></use>                                <g id="分组-12" mask="url(#mask-5)">                                    <g transform="translate(3.300000, 3.000000)" id="分组-11">                                        <g transform="translate(0.937500, 0.000000)">                                            <path d="M4.25,4.1875 L8.875,4.1875 L8.875,2 C8.875,1.17157288 8.20342712,0.5 7.375,0.5 L5.75,0.5 C4.92157288,0.5 4.25,1.17157288 4.25,2 L4.25,4.1875 Z" id="矩形" stroke="url(#linearGradient-6)"></path>                                            <path d="M2.8125,7.5 L2.8125,8.4375 L3.75,8.4375 L3.75,7.5 L9.375,7.5 L9.375,8.4375 L10.3125,8.4375 L10.3125,7.5 L13.125,7.5 L13.125,13 C13.125,14.1045695 12.2295695,15 11.125,15 L2,15 C0.8954305,15 6.25798147e-16,14.1045695 0,13 L0,7.5 L2.8125,7.5 Z M3.75,6.5625 L3.75,4.6875 L2.8125,4.6875 L2.8125,6.5625 L0,6.5625 L0,4.8125 C-1.3527075e-16,3.7079305 0.8954305,2.8125 2,2.8125 L11.125,2.8125 C12.2295695,2.8125 13.125,3.7079305 13.125,4.8125 L13.125,6.5625 L10.3125,6.5625 L10.3125,4.6875 L9.375,4.6875 L9.375,6.5625 L3.75,6.5625 Z" id="合并形状" fill="#FFFFFF"></path>                                        </g>                                    </g>                                </g>                            </g>                        </g>                    </g>                </g>            </g>        </g>    </g></svg>